<svg xmlns="http://www.w3.org/2000/svg" xmlns:xlink="http://www.w3.org/1999/xlink" width="156" zoomAndPan="magnify" viewBox="0 0 116.88 31.5" height="42" preserveAspectRatio="xMidYMid meet" version="1.0"><defs><g/><clipPath id="a58937bb9a"><path d="M 0.855469 0 L 115.90625 0 L 115.90625 31.007812 L 0.855469 31.007812 Z M 0.855469 0 " clip-rule="nonzero"/></clipPath></defs><g clip-path="url(#a58937bb9a)"><path fill="#ffffff" d="M 0.855469 0 L 116.027344 0 L 116.027344 31.007812 L 0.855469 31.007812 Z M 0.855469 0 " fill-opacity="1" fill-rule="nonzero"/><path fill="#f8f8f6" d="M 0.855469 0 L 116.027344 0 L 116.027344 31.007812 L 0.855469 31.007812 Z M 0.855469 0 " fill-opacity="1" fill-rule="nonzero"/></g><g fill="#000000" fill-opacity="1"><g transform="translate(13.191434, 19.195313)"><g><path d="M 0.972656 -0.460938 L 1.0625 -0.128906 L 1.304688 0 L 1.5625 0.0273438 L 2.097656 -0.0117188 L 2.597656 0.0117188 L 3.082031 -0.0117188 L 3.328125 0.0273438 L 3.609375 0 L 6.140625 0.0117188 L 6.382812 -0.113281 L 6.523438 -0.511719 L 6.511719 -1.546875 L 6.398438 -1.933594 L 6.167969 -2.085938 L 5.898438 -2.058594 L 5.65625 -2.007812 L 5.386719 -2.046875 L 4.863281 -2.035156 L 4.605469 -2.085938 L 4.375 -2.046875 L 3.875 -2.074219 L 3.609375 -2.046875 L 3.351562 -2.148438 L 3.25 -2.40625 L 3.261719 -6.742188 L 3.238281 -7.050781 L 3.261719 -7.5625 L 3.222656 -8.289062 L 3.238281 -8.535156 L 3.109375 -8.816406 L 2.851562 -8.96875 L 2.355469 -8.96875 L 2.097656 -8.917969 L 1.585938 -8.96875 L 1.34375 -8.929688 L 1.074219 -8.828125 L 0.960938 -8.546875 L 0.960938 -6.753906 L 0.933594 -6.511719 L 0.960938 -6.257812 L 0.921875 -5.78125 L 0.933594 -5.5 L 0.960938 -5.257812 Z M 0.972656 -0.460938 "/></g></g></g><g fill="#000000" fill-opacity="1"><g transform="translate(20.074045, 19.195313)"><g><path d="M 7.546875 0.0273438 L 8.035156 -0.0117188 L 8.277344 0.0117188 L 8.675781 0 L 9.03125 -0.0625 L 9.070312 -0.371094 L 8.980469 -0.664062 L 8.789062 -1.140625 L 8.445312 -1.804688 L 8.265625 -2.277344 L 8.007812 -2.738281 L 7.523438 -3.902344 L 7.394531 -4.09375 L 7.265625 -4.335938 L 7.191406 -4.617188 L 7.074219 -4.8125 L 7 -5.015625 L 6.730469 -5.488281 L 6.640625 -5.757812 L 5.796875 -7.535156 L 5.71875 -7.792969 L 5.578125 -8.023438 L 5.5 -8.253906 L 5.257812 -8.699219 L 5.039062 -8.929688 L 4.617188 -9.058594 L 4.210938 -8.917969 L 3.980469 -8.699219 L 3.863281 -8.484375 L 3.773438 -8.226562 L 3.660156 -8.046875 L 3.148438 -6.871094 L 3.007812 -6.679688 L 2.941406 -6.421875 L 2.800781 -6.179688 L 2.726562 -5.949219 L 1.421875 -3.210938 L 1.34375 -2.929688 L 1.214844 -2.738281 L 1.125 -2.480469 L 0.894531 -2.074219 L 0.703125 -1.5625 L 0.5625 -1.382812 L 0.5 -1.152344 L 0.242188 -0.640625 L 0.167969 -0.382812 L 0.230469 -0.0625 L 0.484375 0.0117188 L 0.984375 -0.0117188 L 1.242188 0.0117188 L 1.957031 -0.0117188 L 2.25 -0.101562 L 2.496094 -0.332031 L 2.726562 -0.753906 L 2.96875 -0.996094 L 3.238281 -1.140625 L 3.480469 -1.101562 L 4.015625 -1.152344 L 4.246094 -1.113281 L 5.5 -1.125 L 5.730469 -1.101562 L 6.011719 -1.140625 L 6.292969 -0.996094 L 6.539062 -0.792969 L 6.652344 -0.550781 L 6.730469 -0.320312 L 6.984375 -0.128906 L 7.28125 0 Z M 4.644531 -3.160156 L 4.386719 -3.210938 L 4.09375 -3.1875 L 3.890625 -3.273438 L 3.875 -3.519531 L 4.476562 -4.898438 L 4.617188 -5.015625 L 4.796875 -4.914062 L 5.398438 -3.503906 L 5.347656 -3.273438 L 5.15625 -3.171875 Z M 4.644531 -3.160156 "/></g></g></g><g fill="#000000" fill-opacity="1"><g transform="translate(29.361726, 19.195313)"><g><path d="M 7.546875 -0.21875 L 7.894531 -0.0117188 L 8.253906 0.0273438 L 8.535156 -0.0625 L 8.660156 -0.320312 L 8.6875 -4.988281 L 8.648438 -5.207031 L 8.648438 -6.472656 L 8.6875 -6.78125 L 8.648438 -8.558594 L 8.519531 -8.816406 L 8.265625 -8.957031 L 6.679688 -8.941406 L 6.4375 -8.800781 L 6.292969 -8.535156 L 6.28125 -8.265625 L 6.320312 -8.058594 L 6.28125 -7.523438 L 6.308594 -7.242188 L 6.28125 -4.953125 L 6.207031 -4.734375 L 6.011719 -4.824219 L 5.105469 -5.730469 L 4.746094 -6.011719 L 2.226562 -8.558594 L 2.035156 -8.714844 L 1.738281 -8.867188 L 1.355469 -8.957031 L 1.0625 -8.828125 L 0.945312 -8.585938 L 0.945312 -4.707031 L 0.933594 -4.492188 L 0.960938 -3.964844 L 0.921875 -3.75 L 0.945312 -1.652344 L 0.921875 -1.40625 L 0.945312 -0.332031 L 1.0625 -0.0898438 L 1.332031 0 L 1.855469 0.0273438 L 2.136719 0 L 2.636719 0.0390625 L 2.90625 0.0273438 L 3.160156 -0.101562 L 3.289062 -0.5 L 3.300781 -3.734375 L 3.328125 -3.992188 L 3.417969 -4.210938 L 3.582031 -4.144531 L 3.75 -3.929688 L 4.65625 -3.058594 L 4.824219 -2.867188 L 5.039062 -2.726562 L 7.023438 -0.753906 L 7.355469 -0.382812 Z M 7.546875 -0.21875 "/></g></g></g><g fill="#000000" fill-opacity="1"><g transform="translate(39.007608, 19.195313)"><g><path d="M 0.320312 -0.34375 L 0.371094 -0.078125 L 0.625 0.0390625 L 3.441406 0.0507812 L 3.722656 0 L 3.964844 0.0117188 L 4.183594 0.0507812 L 4.453125 0.0273438 L 4.722656 0.0273438 L 4.976562 -0.0117188 L 5.21875 0.0390625 L 5.5 0.0117188 L 6.792969 0.0117188 L 7.023438 -0.0117188 L 7.28125 -0.140625 L 7.40625 -0.359375 L 7.394531 -0.613281 L 7.421875 -0.882812 L 7.421875 -1.421875 L 7.394531 -1.652344 L 7.292969 -1.894531 L 7.023438 -2.023438 L 6.730469 -2.035156 L 6.460938 -2.023438 L 6.21875 -2.046875 L 4.898438 -2.058594 L 4.671875 -2.035156 L 4.402344 -2.046875 L 4.144531 -2.035156 L 3.929688 -2.164062 L 3.902344 -2.378906 L 4.054688 -2.570312 L 4.183594 -2.800781 L 4.285156 -3.070312 L 4.414062 -3.273438 L 4.542969 -3.53125 L 4.734375 -3.824219 L 5.285156 -4.863281 L 5.4375 -5.078125 L 5.820312 -5.808594 L 5.9375 -5.976562 L 6.167969 -6.472656 L 6.320312 -6.691406 L 7.320312 -8.546875 L 7.230469 -8.828125 L 6.972656 -8.917969 L 6.730469 -8.941406 L 5.976562 -8.917969 L 5.640625 -8.957031 L 3.75 -8.941406 L 3.492188 -8.980469 L 3.222656 -8.941406 L 2.226562 -8.941406 L 1.957031 -8.96875 L 1.726562 -8.941406 L 1.191406 -8.941406 L 0.945312 -8.96875 L 0.742188 -8.839844 L 0.574219 -8.570312 L 0.601562 -8.304688 L 0.589844 -7.253906 L 0.730469 -7.011719 L 1.113281 -6.910156 L 1.484375 -6.910156 L 1.738281 -6.871094 L 1.984375 -6.910156 L 3.519531 -6.894531 L 3.683594 -6.78125 L 3.660156 -6.539062 L 2.085938 -3.621094 L 1.933594 -3.390625 L 1.703125 -2.929688 L 1.546875 -2.726562 L 1.316406 -2.238281 L 1.050781 -1.816406 L 0.714844 -1.140625 L 0.550781 -0.910156 L 0.421875 -0.652344 Z M 0.320312 -0.34375 "/></g></g></g><g fill="#000000" fill-opacity="1"><g transform="translate(46.900861, 19.195313)"><g><path d="M 0.320312 -0.34375 L 0.371094 -0.078125 L 0.625 0.0390625 L 3.441406 0.0507812 L 3.722656 0 L 3.964844 0.0117188 L 4.183594 0.0507812 L 4.453125 0.0273438 L 4.722656 0.0273438 L 4.976562 -0.0117188 L 5.21875 0.0390625 L 5.5 0.0117188 L 6.792969 0.0117188 L 7.023438 -0.0117188 L 7.28125 -0.140625 L 7.40625 -0.359375 L 7.394531 -0.613281 L 7.421875 -0.882812 L 7.421875 -1.421875 L 7.394531 -1.652344 L 7.292969 -1.894531 L 7.023438 -2.023438 L 6.730469 -2.035156 L 6.460938 -2.023438 L 6.21875 -2.046875 L 4.898438 -2.058594 L 4.671875 -2.035156 L 4.402344 -2.046875 L 4.144531 -2.035156 L 3.929688 -2.164062 L 3.902344 -2.378906 L 4.054688 -2.570312 L 4.183594 -2.800781 L 4.285156 -3.070312 L 4.414062 -3.273438 L 4.542969 -3.53125 L 4.734375 -3.824219 L 5.285156 -4.863281 L 5.4375 -5.078125 L 5.820312 -5.808594 L 5.9375 -5.976562 L 6.167969 -6.472656 L 6.320312 -6.691406 L 7.320312 -8.546875 L 7.230469 -8.828125 L 6.972656 -8.917969 L 6.730469 -8.941406 L 5.976562 -8.917969 L 5.640625 -8.957031 L 3.75 -8.941406 L 3.492188 -8.980469 L 3.222656 -8.941406 L 2.226562 -8.941406 L 1.957031 -8.96875 L 1.726562 -8.941406 L 1.191406 -8.941406 L 0.945312 -8.96875 L 0.742188 -8.839844 L 0.574219 -8.570312 L 0.601562 -8.304688 L 0.589844 -7.253906 L 0.730469 -7.011719 L 1.113281 -6.910156 L 1.484375 -6.910156 L 1.738281 -6.871094 L 1.984375 -6.910156 L 3.519531 -6.894531 L 3.683594 -6.78125 L 3.660156 -6.539062 L 2.085938 -3.621094 L 1.933594 -3.390625 L 1.703125 -2.929688 L 1.546875 -2.726562 L 1.316406 -2.238281 L 1.050781 -1.816406 L 0.714844 -1.140625 L 0.550781 -0.910156 L 0.421875 -0.652344 Z M 0.320312 -0.34375 "/></g></g></g><g fill="#000000" fill-opacity="1"><g transform="translate(54.794115, 19.195313)"><g/></g></g><g fill="#000000" fill-opacity="1"><g transform="translate(58.261004, 19.195313)"><g><path d="M 3.441406 0.113281 L 4.453125 0.140625 L 4.707031 0.113281 L 4.964844 0.0507812 L 5.21875 0.0117188 L 5.476562 -0.0898438 L 5.707031 -0.113281 L 5.949219 -0.230469 L 6.820312 -0.753906 L 7.191406 -1.140625 L 7.320312 -1.316406 L 7.460938 -1.597656 L 7.535156 -1.828125 L 7.613281 -2.046875 L 7.6875 -2.6875 L 7.664062 -3.097656 L 7.472656 -3.839844 L 7.332031 -4.042969 L 7 -4.425781 L 6.769531 -4.632812 L 6.5625 -4.734375 L 6.332031 -4.875 L 5.335938 -5.183594 L 5.078125 -5.21875 L 4.824219 -5.234375 L 4.554688 -5.285156 L 4.183594 -5.285156 L 3.503906 -5.425781 L 3.03125 -5.65625 L 2.839844 -5.835938 L 2.789062 -6.21875 L 2.851562 -6.5625 L 3.007812 -6.730469 L 3.199219 -6.871094 L 3.402344 -6.984375 L 3.632812 -7.035156 L 4.042969 -7.050781 L 4.453125 -7 L 4.683594 -6.933594 L 4.914062 -6.78125 L 5.128906 -6.601562 L 5.324219 -6.347656 L 5.605469 -6.179688 L 6.207031 -6.230469 L 6.550781 -6.207031 L 6.804688 -6.207031 L 7.035156 -6.179688 L 7.28125 -6.359375 L 7.382812 -6.578125 L 7.332031 -6.820312 L 7.304688 -7.0625 L 6.949219 -7.726562 L 6.664062 -8.113281 L 5.820312 -8.699219 L 5.105469 -8.941406 L 4.605469 -9.046875 L 3.621094 -9.070312 L 3.339844 -8.996094 L 3.082031 -8.980469 L 2.851562 -8.941406 L 2.367188 -8.789062 L 1.933594 -8.535156 L 1.316406 -8.113281 L 0.871094 -7.511719 L 0.640625 -6.804688 L 0.601562 -6.179688 L 0.613281 -5.78125 L 0.703125 -5.269531 L 0.910156 -4.824219 L 1.382812 -4.234375 L 2.25 -3.761719 L 2.710938 -3.609375 L 4.722656 -3.378906 L 5.183594 -3.160156 L 5.347656 -3.007812 L 5.425781 -2.6875 L 5.324219 -2.367188 L 5.15625 -2.175781 L 4.722656 -1.984375 L 4.324219 -1.957031 L 4.09375 -1.917969 L 3.441406 -1.984375 L 3.222656 -2.097656 L 3.007812 -2.238281 L 2.585938 -2.699219 L 2.328125 -2.800781 L 2.097656 -2.777344 L 1.855469 -2.816406 L 0.871094 -2.761719 L 0.640625 -2.660156 L 0.539062 -2.390625 L 0.574219 -2.136719 L 0.625 -1.878906 L 0.703125 -1.652344 L 0.945312 -1.175781 L 1.125 -1.011719 L 1.292969 -0.820312 L 1.738281 -0.539062 L 1.917969 -0.34375 L 2.164062 -0.230469 L 2.417969 -0.152344 L 2.917969 0.0273438 Z M 3.441406 0.113281 "/></g></g></g><g fill="#000000" fill-opacity="1"><g transform="translate(66.422911, 19.195313)"><g><path d="M 3.339844 0.0273438 L 4.195312 0 L 4.566406 -0.128906 L 4.695312 -0.484375 L 4.734375 -1.152344 L 4.695312 -1.636719 L 4.722656 -1.90625 L 4.707031 -2.417969 L 4.734375 -2.648438 L 4.695312 -2.929688 L 4.722656 -4.988281 L 4.683594 -5.257812 L 4.722656 -6.371094 L 4.824219 -6.753906 L 5.066406 -6.910156 L 5.566406 -6.933594 L 6.039062 -6.871094 L 6.308594 -6.910156 L 6.539062 -6.894531 L 6.753906 -7.035156 L 6.910156 -7.320312 L 6.921875 -8.535156 L 6.78125 -8.789062 L 6.539062 -8.957031 L 5.746094 -8.957031 L 5.5 -8.980469 L 5.234375 -8.941406 L 4.988281 -8.96875 L 3.953125 -8.917969 L 3.699219 -8.96875 L 3.453125 -8.980469 L 3.1875 -8.941406 L 2.90625 -8.96875 L 2.675781 -8.917969 L 1.917969 -8.957031 L 1.523438 -8.917969 L 0.625 -8.96875 L 0.382812 -8.839844 L 0.230469 -8.546875 L 0.242188 -8.289062 L 0.21875 -7.652344 L 0.242188 -7.253906 L 0.359375 -7.023438 L 0.589844 -6.894531 L 0.84375 -6.921875 L 2.058594 -6.894531 L 2.304688 -6.769531 L 2.445312 -6.511719 L 2.417969 -6.101562 L 2.445312 -5.746094 L 2.429688 -5.464844 L 2.445312 -5.207031 L 2.417969 -4.847656 L 2.457031 -2.941406 L 2.429688 -2.6875 L 2.417969 -1.652344 L 2.445312 -1.382812 L 2.429688 -0.640625 L 2.40625 -0.398438 L 2.570312 -0.113281 L 2.941406 0.0117188 Z M 3.339844 0.0273438 "/></g></g></g><g fill="#000000" fill-opacity="1"><g transform="translate(73.574177, 19.195313)"><g><path d="M 5.128906 0.167969 L 6.269531 0.0507812 L 6.753906 -0.101562 L 7.894531 -0.613281 L 8.789062 -1.472656 L 8.957031 -1.703125 L 9.453125 -2.585938 L 9.542969 -2.828125 L 9.582031 -3.082031 L 9.660156 -3.289062 L 9.710938 -3.570312 L 9.773438 -4.464844 L 9.710938 -5.347656 L 9.609375 -5.820312 L 9.507812 -6.089844 L 9.441406 -6.382812 L 9.210938 -6.804688 L 9.121094 -7.035156 L 8.957031 -7.253906 L 8.800781 -7.40625 L 8.636719 -7.636719 L 8.085938 -8.136719 L 7.433594 -8.546875 L 5.757812 -9.070312 L 5.15625 -9.085938 L 4.261719 -9.03125 L 4.003906 -8.980469 L 3.75 -8.90625 L 3.519531 -8.800781 L 3.03125 -8.675781 L 2.378906 -8.265625 L 2.199219 -8.113281 L 1.792969 -7.832031 L 1.445312 -7.445312 L 1.011719 -6.804688 L 0.894531 -6.589844 L 0.652344 -5.886719 L 0.550781 -5.335938 L 0.5 -3.851562 L 0.640625 -3.046875 L 0.832031 -2.609375 L 0.910156 -2.339844 L 1.035156 -2.109375 L 1.636719 -1.292969 L 1.996094 -0.945312 L 2.164062 -0.753906 L 3.03125 -0.292969 L 3.273438 -0.191406 L 4.363281 0.128906 Z M 4.773438 -2.085938 L 4.515625 -2.175781 L 4.285156 -2.199219 L 3.851562 -2.429688 L 3.453125 -2.777344 L 3.328125 -2.957031 L 3.160156 -3.132812 L 2.917969 -3.851562 L 2.851562 -4.492188 L 2.867188 -4.875 L 2.957031 -5.347656 L 3.03125 -5.578125 L 3.1875 -5.757812 L 3.300781 -5.976562 L 3.46875 -6.179688 L 3.660156 -6.347656 L 4.03125 -6.601562 L 4.261719 -6.71875 L 4.527344 -6.78125 L 5.117188 -6.832031 L 5.730469 -6.792969 L 6.410156 -6.5 L 6.804688 -6.207031 L 7.101562 -5.769531 L 7.203125 -5.539062 L 7.28125 -5.285156 L 7.371094 -5.054688 L 7.421875 -4.503906 L 7.34375 -3.863281 L 7.230469 -3.339844 L 7.089844 -3.148438 L 6.972656 -2.957031 L 6.820312 -2.726562 L 6.421875 -2.417969 L 6.191406 -2.316406 L 5.988281 -2.199219 L 5.757812 -2.175781 L 5.515625 -2.109375 Z M 4.773438 -2.085938 "/></g></g></g><g fill="#000000" fill-opacity="1"><g transform="translate(83.83413, 19.195313)"><g><path d="M 0.960938 -0.523438 L 1.085938 -0.128906 L 1.457031 0.0390625 L 1.714844 0 L 2.125 0.0390625 L 2.328125 0.0117188 L 2.710938 0.0117188 L 3.121094 -0.113281 L 3.238281 -0.484375 L 3.238281 -0.921875 L 3.261719 -1.152344 L 3.222656 -1.421875 L 3.25 -2.238281 L 3.363281 -2.496094 L 3.609375 -2.636719 L 4.351562 -2.535156 L 4.605469 -2.316406 L 4.757812 -2.058594 L 4.863281 -1.828125 L 5.128906 -1.445312 L 5.375 -0.984375 L 5.515625 -0.792969 L 5.617188 -0.539062 L 5.757812 -0.320312 L 6.039062 -0.0898438 L 6.472656 0.0273438 L 7.484375 0.0117188 L 7.726562 0.0390625 L 8.148438 0.0273438 L 8.394531 -0.0898438 L 8.46875 -0.371094 L 8.328125 -0.652344 L 8.175781 -0.832031 L 8.074219 -1.074219 L 7.636719 -1.726562 L 7.523438 -1.957031 L 7.113281 -2.621094 L 6.960938 -2.816406 L 6.949219 -3.121094 L 7.0625 -3.402344 L 7.242188 -3.59375 L 7.421875 -3.75 L 7.917969 -4.644531 L 8.085938 -5.386719 L 8.058594 -6.191406 L 8.023438 -6.449219 L 7.792969 -7.175781 L 7.6875 -7.394531 L 7.546875 -7.601562 L 6.820312 -8.367188 L 6.371094 -8.609375 L 5.886719 -8.777344 L 5.15625 -8.941406 L 4.746094 -8.957031 L 4.375 -8.929688 L 3.609375 -8.929688 L 3.351562 -8.980469 L 3.097656 -8.980469 L 2.867188 -8.917969 L 2.609375 -8.917969 L 2.355469 -8.96875 L 2.074219 -8.980469 L 1.316406 -8.917969 L 1.085938 -8.789062 L 0.933594 -8.429688 L 0.945312 -5.5 L 0.972656 -5.246094 L 0.933594 -4.734375 L 0.945312 -4.453125 L 0.945312 -4.195312 L 0.972656 -3.953125 L 0.945312 -3.710938 L 0.933594 -2.675781 L 0.960938 -2.417969 Z M 3.609375 -4.683594 L 3.351562 -4.824219 L 3.25 -5.027344 L 3.25 -5.796875 L 3.222656 -6.011719 L 3.25 -6.550781 L 3.363281 -6.792969 L 3.632812 -6.894531 L 3.890625 -6.882812 L 4.402344 -6.933594 L 4.757812 -6.859375 L 5.09375 -6.832031 L 5.335938 -6.769531 L 5.65625 -6.371094 L 5.730469 -6.167969 L 5.78125 -5.835938 L 5.746094 -5.449219 L 5.628906 -5.195312 L 5.488281 -5.003906 L 5.347656 -4.886719 L 5.117188 -4.785156 L 4.746094 -4.695312 L 4.503906 -4.683594 L 3.890625 -4.707031 Z M 3.609375 -4.683594 "/></g></g></g><g fill="#000000" fill-opacity="1"><g transform="translate(92.712441, 19.195313)"><g><path d="M 4.453125 0.0390625 L 6.28125 0.0117188 L 6.550781 -0.101562 L 6.691406 -0.371094 L 6.691406 -1.664062 L 6.550781 -1.917969 L 6.28125 -2.035156 L 5.988281 -2.007812 L 5.746094 -2.046875 L 5.09375 -2.058594 L 4.671875 -2.007812 L 4.414062 -2.035156 L 4.132812 -2.023438 L 3.890625 -2.058594 L 3.609375 -2.035156 L 3.339844 -2.164062 L 3.238281 -2.390625 L 3.238281 -3.199219 L 3.351562 -3.46875 L 3.582031 -3.609375 L 3.964844 -3.621094 L 4.375 -3.582031 L 4.863281 -3.609375 L 5.386719 -3.59375 L 5.640625 -3.621094 L 5.9375 -3.609375 L 6.191406 -3.710938 L 6.28125 -3.964844 L 6.320312 -5.117188 L 6.191406 -5.476562 L 5.898438 -5.640625 L 5.144531 -5.640625 L 4.875 -5.617188 L 4.335938 -5.65625 L 3.59375 -5.628906 L 3.328125 -5.746094 L 3.222656 -6.140625 L 3.222656 -6.539062 L 3.339844 -6.78125 L 3.621094 -6.882812 L 3.863281 -6.871094 L 4.105469 -6.921875 L 5.9375 -6.894531 L 6.179688 -6.910156 L 6.449219 -7.0625 L 6.578125 -7.292969 L 6.5625 -7.546875 L 6.578125 -7.804688 L 6.550781 -8.570312 L 6.4375 -8.816406 L 6.179688 -8.917969 L 5.910156 -8.917969 L 5.679688 -8.96875 L 4.644531 -8.957031 L 4.363281 -8.929688 L 4.105469 -8.957031 L 3.890625 -8.941406 L 3.632812 -8.96875 L 2.585938 -8.941406 L 2.328125 -8.980469 L 2.085938 -8.929688 L 1.855469 -8.957031 L 1.597656 -8.929688 L 1.34375 -8.941406 L 1.074219 -8.839844 L 0.933594 -8.570312 L 0.960938 -8.085938 L 0.921875 -7.5625 L 0.960938 -7.28125 L 0.933594 -6.027344 L 0.972656 -5.757812 L 0.945312 -5.515625 L 0.933594 -4.464844 L 0.972656 -4.234375 L 0.960938 -2.164062 L 0.933594 -1.917969 L 0.972656 -1.664062 L 0.933594 -0.78125 L 0.960938 -0.5 L 1.0625 -0.152344 L 1.445312 0.0117188 L 2.367188 0.0273438 L 2.648438 0 L 2.878906 0.0117188 L 3.402344 -0.0273438 L 3.644531 0.0273438 L 3.941406 0.0390625 L 4.195312 0.0117188 Z M 4.453125 0.0390625 "/></g></g></g><g fill="#000000" fill-opacity="1"><g transform="translate(100.042802, 19.195313)"><g><path d="M 1.613281 0.0507812 L 1.933594 0.0625 L 2.074219 0.0273438 L 2.199219 0.0273438 L 2.339844 -0.0273438 L 2.507812 -0.128906 L 2.609375 -0.179688 L 2.726562 -0.28125 L 2.839844 -0.410156 L 2.929688 -0.539062 L 3.046875 -0.933594 L 3.058594 -1.226562 L 3.007812 -1.382812 L 2.980469 -1.523438 L 2.90625 -1.6875 L 2.816406 -1.816406 L 2.726562 -1.894531 L 2.636719 -2.023438 L 2.496094 -2.097656 L 2.378906 -2.175781 L 2.226562 -2.199219 L 2.058594 -2.265625 L 1.917969 -2.277344 L 1.625 -2.265625 L 1.34375 -2.214844 L 1.175781 -2.164062 L 1.074219 -2.109375 L 0.820312 -1.894531 L 0.613281 -1.675781 L 0.574219 -1.546875 L 0.511719 -1.40625 L 0.523438 -0.792969 L 0.5625 -0.652344 L 0.625 -0.511719 L 0.703125 -0.410156 L 0.84375 -0.292969 L 0.910156 -0.191406 L 1.203125 -0.0273438 L 1.316406 0.0117188 L 1.484375 0.0507812 Z M 1.613281 0.0507812 "/></g></g></g></svg>